<svg width="300" height="400" xmlns="http://www.w3.org/2000/svg">
  <defs>
    <linearGradient id="grad6" x1="0%" y1="0%" x2="100%" y2="100%">
      <stop offset="0%" style="stop-color:#30cfd0;stop-opacity:1" />
      <stop offset="100%" style="stop-color:#330867;stop-opacity:1" />
    </linearGradient>
  </defs>
  
  <!-- Module background -->
  <rect width="300" height="400" fill="url(#grad6)" />
  
  <!-- Panel screws -->
  <circle cx="20" cy="20" r="8" fill="#333" />
  <circle cx="280" cy="20" r="8" fill="#333" />
  <circle cx="20" cy="380" r="8" fill="#333" />
  <circle cx="280" cy="380" r="8" fill="#333" />
  
  <!-- Module name -->
  <text x="150" y="50" font-family="monospace" font-size="20" font-weight="bold" fill="white" text-anchor="middle">
    MIXER
  </text>
  
  <!-- Knobs -->
  <circle cx="75" cy="120" r="25" fill="#222" stroke="white" stroke-width="2"/>
  <line x1="75" y1="120" x2="75" y2="100" stroke="white" stroke-width="2"/>
  
  <circle cx="150" cy="120" r="25" fill="#222" stroke="white" stroke-width="2"/>
  <line x1="150" y1="120" x2="150" y2="100" stroke="white" stroke-width="2"/>
  
  <circle cx="225" cy="120" r="25" fill="#222" stroke="white" stroke-width="2"/>
  <line x1="225" y1="120" x2="225" y2="100" stroke="white" stroke-width="2"/>
  
  <!-- Jacks -->
  <circle cx="75" cy="200" r="15" fill="#111" stroke="#888" stroke-width="2"/>
  <circle cx="150" cy="200" r="15" fill="#111" stroke="#888" stroke-width="2"/>
  <circle cx="225" cy="200" r="15" fill="#111" stroke="#888" stroke-width="2"/>
  
  <circle cx="75" cy="250" r="15" fill="#111" stroke="#888" stroke-width="2"/>
  <circle cx="150" cy="250" r="15" fill="#111" stroke="#888" stroke-width="2"/>
  <circle cx="225" cy="250" r="15" fill="#111" stroke="#888" stroke-width="2"/>
  
  <!-- LEDs -->
  <circle cx="75" cy="320" r="8" fill="#0f0" opacity="0.8"/>
  <circle cx="150" cy="320" r="8" fill="#f00" opacity="0.8"/>
  <circle cx="225" cy="320" r="8" fill="#00f" opacity="0.8"/>
  
  <!-- Module ID -->
  <text x="150" y="370" font-family="monospace" font-size="14" fill="white" text-anchor="middle" opacity="0.5">
    #06
  </text>
</svg>